# Blender 3.1.0
# www.blender.org
mtllib Key.mtl
o Torus
v 1.250000 4.442284 0.000000
v 1.155872 4.442284 0.312097
v 0.333546 4.984641 0.312097
v 0.273640 4.984641 0.084938
v 0.273640 4.984641 -0.084938
v 0.333546 4.984641 -0.312097
v 1.155872 4.442284 -0.312097
v 0.625000 5.524816 -0.000000
v 0.577936 5.443298 0.312097
v 0.166773 5.273500 0.312097
v 0.136820 5.221621 0.084938
v 0.136820 5.221621 -0.084938
v 0.166773 5.273500 -0.312097
v 0.577936 5.443298 -0.312097
v -0.625000 5.524816 -0.000000
v -0.577936 5.443298 0.312097
v -0.166773 5.273500 0.312097
v -0.136820 5.221621 0.084938
v -0.136820 5.221621 -0.084938
v -0.166773 5.273500 -0.312097
v -0.577936 5.443298 -0.312097
v -1.250000 4.442284 0.000000
v -1.155872 4.442284 0.312097
v -0.333546 4.984641 0.312097
v -0.273640 4.984641 0.084938
v -0.273640 4.984641 -0.084938
v -0.333546 4.984641 -0.312097
v -1.155872 4.442284 -0.312097
v -0.625000 3.359752 -0.000000
v -0.577936 3.441269 0.312097
v -0.166773 4.695781 0.312097
v -0.136820 4.747662 0.084938
v -0.136820 4.747662 -0.084938
v -0.166773 4.695781 -0.312097
v -0.577936 3.441269 -0.312097
v 0.625000 3.359752 -0.000000
v 0.577936 3.441269 0.312097
v 0.166773 4.695782 0.312097
v 0.136820 4.747662 0.084938
v 0.136820 4.747662 -0.084938
v 0.166773 4.695782 -0.312097
v 0.577936 3.441269 -0.312097
v -0.000000 0.140065 -0.213348
v -0.000000 2.929802 -0.213348
v 0.184765 0.140065 -0.106674
v 0.184765 2.929802 -0.106674
v 0.184765 0.140065 0.106674
v 0.184765 2.929802 0.106674
v -0.000000 0.140065 0.213348
v -0.000000 2.929802 0.213348
v -0.184765 0.140065 0.106674
v -0.184765 2.929802 0.106674
v -0.184765 0.140065 -0.106674
v -0.184765 2.929802 -0.106674
v 0.136530 0.894224 0.091762
v 0.136530 1.686227 0.091762
v 0.136530 0.894224 -0.091762
v 0.136530 1.686227 -0.091762
v 0.865244 0.894224 0.091762
v 0.865244 1.686227 0.091762
v 0.865244 0.894224 -0.091762
v 0.865244 1.686227 -0.091762
v 0.136530 0.309794 0.091762
v 0.136530 0.701842 0.091762
v 0.136530 0.309794 -0.091762
v 0.136530 0.701842 -0.091762
v 0.865244 0.309794 0.091762
v 0.865244 0.701842 0.091762
v 0.865244 0.309794 -0.091762
v 0.865244 0.701842 -0.091762
v 0.000000 2.929802 -0.274314
v 0.237563 2.929802 -0.137157
v 0.237563 2.929802 0.137157
v -0.000000 2.929802 0.274314
v -0.237563 2.929802 0.137157
v -0.237563 2.929802 -0.137157
v 0.000000 3.084071 -0.274314
v 0.237563 3.084071 -0.137157
v 0.237563 3.084071 0.137157
v -0.000000 3.084071 0.274314
v -0.237563 3.084071 0.137157
v -0.237563 3.084071 -0.137157
v 0.000000 3.084071 -0.245033
v 0.212204 3.084071 -0.122516
v 0.212204 3.084071 0.122516
v -0.000000 3.084071 0.245033
v -0.212204 3.084071 0.122516
v -0.212204 3.084071 -0.122516
v 0.000000 3.131154 -0.245033
v 0.212204 3.131154 -0.122516
v 0.212204 3.131154 0.122516
v -0.000000 3.131154 0.245033
v -0.212204 3.131154 0.122516
v -0.212204 3.131154 -0.122516
v 0.000000 3.131154 -0.326745
v 0.282969 3.131154 -0.163372
v 0.282969 3.131154 0.163372
v -0.000000 3.131154 0.326745
v -0.282969 3.131154 0.163372
v -0.282969 3.131154 -0.163372
v 0.000000 3.333581 -0.326745
v 0.282969 3.333581 -0.163372
v 0.282969 3.333581 0.163372
v -0.000000 3.333581 0.326745
v -0.282969 3.333581 0.163372
v -0.282969 3.333581 -0.163372
v 0.000000 3.367430 -0.286112
v 0.247781 3.367430 -0.143056
v 0.247781 3.367430 0.143056
v -0.000000 3.367430 0.286112
v -0.247781 3.367430 0.143056
v -0.247781 3.367430 -0.143056
v 0.000000 3.523623 -0.286112
v 0.247781 3.523623 -0.143056
v 0.247781 3.523623 0.143056
v -0.000000 3.523623 0.286112
v -0.247781 3.523623 0.143056
v -0.247781 3.523623 -0.143056
vn 1.0000 -0.0000 -0.0000
vn 0.5000 0.8660 -0.0000
vn 0.3483 0.6032 0.7175
vn 0.6966 -0.0000 0.7175
vn -0.2251 -0.3900 0.8929
vn -0.4503 -0.0000 0.8929
vn -0.4955 -0.8582 0.1341
vn -0.9910 -0.0000 0.1341
vn -0.4955 -0.8582 -0.1341
vn -0.9910 -0.0000 -0.1341
vn -0.2251 -0.3900 -0.8929
vn -0.4503 -0.0000 -0.8929
vn 0.3483 0.6032 -0.7175
vn 0.6966 -0.0000 -0.7175
vn -0.5000 0.8660 -0.0000
vn -0.3483 0.6032 0.7175
vn 0.2251 -0.3900 0.8929
vn 0.4955 -0.8582 0.1341
vn 0.4955 -0.8582 -0.1341
vn 0.2251 -0.3900 -0.8929
vn -0.3483 0.6032 -0.7175
vn -1.0000 -0.0000 -0.0000
vn -0.6966 -0.0000 0.7175
vn 0.4503 -0.0000 0.8929
vn 0.9910 -0.0000 0.1341
vn 0.9910 -0.0000 -0.1341
vn 0.4503 -0.0000 -0.8929
vn -0.6966 -0.0000 -0.7175
vn -0.5000 -0.8660 -0.0000
vn -0.3483 -0.6032 0.7175
vn 0.2251 0.3900 0.8929
vn 0.4955 0.8582 0.1341
vn 0.4955 0.8582 -0.1341
vn 0.2251 0.3900 -0.8929
vn -0.3483 -0.6032 -0.7175
vn 0.5000 -0.8660 -0.0000
vn 0.3483 -0.6032 0.7175
vn -0.2251 0.3900 0.8929
vn -0.4955 0.8582 0.1341
vn -0.4955 0.8582 -0.1341
vn -0.2251 0.3900 -0.8929
vn 0.3483 -0.6032 -0.7175
vn -0.0000 -0.6100 -0.7924
vn -0.0000 -0.8386 -0.5447
vn 0.4717 -0.8386 -0.2724
vn 0.6862 -0.6100 -0.3962
vn 0.4717 -0.8386 0.2724
vn 0.6862 -0.6100 0.3962
vn -0.0000 -0.8386 0.5447
vn -0.0000 -0.6100 0.7924
vn -0.4717 -0.8386 0.2724
vn -0.6862 -0.6100 0.3962
vn -0.4717 -0.8386 -0.2724
vn -0.6862 -0.6100 -0.3962
vn -0.0000 -0.7071 -0.7071
vn -0.0000 0.7071 -0.7071
vn 0.5774 0.5774 -0.5774
vn 0.5774 -0.5774 -0.5774
vn 0.5774 0.5774 0.5774
vn 0.5774 -0.5774 0.5774
vn -0.0000 0.7071 0.7071
vn -0.0000 -0.7071 0.7071
vn -0.6862 0.6100 -0.3962
vn -0.0000 0.6100 -0.7924
vn -0.0000 0.6100 0.7924
vn -0.6862 0.6100 0.3962
vn 0.6862 0.6100 -0.3962
vn 0.6862 0.6100 0.3962
vn -0.4717 0.8386 0.2724
vn -0.4717 0.8386 -0.2724
vn 0.4717 0.8386 0.2724
vn -0.0000 0.8386 0.5447
vn -0.0000 0.8386 -0.5447
vn 0.4717 0.8386 -0.2724
vn -0.8012 0.3796 -0.4626
vn -0.0000 0.3796 -0.9252
vn -0.0000 0.3796 0.9252
vn -0.8012 0.3796 0.4626
vn 0.8012 0.3796 -0.4626
vn 0.8012 0.3796 0.4626
vn -0.7564 0.4870 0.4367
vn -0.7564 0.4870 -0.4367
vn 0.7564 0.4870 0.4367
vn -0.0000 0.4870 0.8734
vn -0.0000 0.4870 -0.8734
vn 0.7564 0.4870 -0.4367
vn -0.0000 -0.0000 1.0000
vn -0.8660 -0.0000 0.5000
vn 0.8660 -0.0000 -0.5000
vn 0.8660 -0.0000 0.5000
vn -0.8660 -0.0000 -0.5000
vn -0.0000 -0.0000 -1.0000
vt 0.500000 0.571429
vt 0.500000 0.714286
vt 0.500000 0.857143
vt 0.500000 1.000000
vt 0.500000 -0.000000
vt 0.500000 0.142857
vt 0.500000 0.285714
vt 0.500000 0.428571
vt 0.666667 0.571429
vt 0.666667 0.714286
vt 0.666667 0.857143
vt 0.666667 1.000000
vt 0.666667 -0.000000
vt 0.666667 0.142857
vt 0.666667 0.285714
vt 0.666667 0.428571
vt 0.833333 0.571429
vt 0.833333 0.714286
vt 0.833333 0.857143
vt 0.833333 1.000000
vt 0.833333 -0.000000
vt 0.833333 0.142857
vt 0.833333 0.285714
vt 0.833333 0.428571
vt 1.000000 0.571429
vt -0.000000 0.571429
vt 1.000000 0.714286
vt -0.000000 0.714286
vt 1.000000 0.857143
vt -0.000000 0.857143
vt 1.000000 1.000000
vt 1.000000 -0.000000
vt -0.000000 1.000000
vt -0.000000 -0.000000
vt 1.000000 0.142857
vt -0.000000 0.142857
vt 1.000000 0.285714
vt -0.000000 0.285714
vt 1.000000 0.428571
vt -0.000000 0.428571
vt 0.166667 0.571429
vt 0.166667 0.714286
vt 0.166667 0.857143
vt 0.166667 1.000000
vt 0.166667 -0.000000
vt 0.166667 0.142857
vt 0.166667 0.285714
vt 0.166667 0.428571
vt 0.333333 0.571429
vt 0.333333 0.714286
vt 0.333333 0.857143
vt 0.333333 1.000000
vt 0.333333 -0.000000
vt 0.333333 0.142857
vt 0.333333 0.285714
vt 0.333333 0.428571
vt 1.000000 0.500000
vt -0.000000 0.500000
vt 0.750000 0.490000
vt 1.000000 1.000000
vt -0.000000 1.000000
vt 0.833333 0.500000
vt 0.957846 0.370000
vt 0.833333 1.000000
vt 0.666667 0.500000
vt 0.957846 0.130000
vt 0.666667 1.000000
vt 0.500000 0.500000
vt 0.750000 0.010000
vt 0.500000 1.000000
vt 0.333333 0.500000
vt 0.542154 0.130000
vt 0.333333 1.000000
vt 0.166667 0.500000
vt 0.542154 0.370000
vt 0.166667 1.000000
vt 0.375000 1.000000
vt 0.125000 0.750000
vt 0.625000 1.000000
vt 0.875000 0.750000
vt 0.375000 0.250000
vt 0.125000 0.500000
vt 0.625000 0.250000
vt 0.875000 0.500000
vt 0.375000 0.750000
vt 0.625000 0.750000
vt 0.375000 0.500000
vt 0.625000 0.500000
vt 0.375000 1.000000
vt 0.125000 0.750000
vt 0.625000 1.000000
vt 0.875000 0.750000
vt 0.375000 0.250000
vt 0.125000 0.500000
vt 0.625000 0.250000
vt 0.875000 0.500000
vt 0.375000 0.750000
vt 0.625000 0.750000
vt 0.375000 0.500000
vt 0.625000 0.500000
vt -0.000000 1.000000
vt 1.000000 1.000000
vt 0.833333 1.000000
vt 0.666667 1.000000
vt 0.500000 1.000000
vt 0.333333 1.000000
vt 0.166667 1.000000
vt 1.000000 1.000000
vt -0.000000 1.000000
vt 0.833333 1.000000
vt 0.666667 1.000000
vt 0.500000 1.000000
vt 0.333333 1.000000
vt 0.166667 1.000000
vt -0.000000 1.000000
vt 1.000000 1.000000
vt 0.833333 1.000000
vt 0.666667 1.000000
vt 0.500000 1.000000
vt 0.333333 1.000000
vt 0.166667 1.000000
vt 1.000000 1.000000
vt -0.000000 1.000000
vt 0.833333 1.000000
vt 0.666667 1.000000
vt 0.500000 1.000000
vt 0.333333 1.000000
vt 0.166667 1.000000
vt -0.000000 1.000000
vt 1.000000 1.000000
vt 0.833333 1.000000
vt 0.666667 1.000000
vt 0.500000 1.000000
vt 0.333333 1.000000
vt 0.166667 1.000000
vt 1.000000 1.000000
vt -0.000000 1.000000
vt 0.833333 1.000000
vt 0.666667 1.000000
vt 0.500000 1.000000
vt 0.333333 1.000000
vt 0.166667 1.000000
vt 1.000000 1.000000
vt -0.000000 1.000000
vt 0.833333 1.000000
vt 0.666667 1.000000
vt 0.500000 1.000000
vt 0.333333 1.000000
vt 0.166667 1.000000
vt 1.000000 1.000000
vt -0.000000 1.000000
vt 0.833333 1.000000
vt 0.666667 1.000000
vt 0.500000 1.000000
vt 0.333333 1.000000
vt 0.166667 1.000000
s 1
usemtl Material
f 1/1/1 8/9/2 9/10/3 2/2/4
f 2/2/4 9/10/3 10/11/5 3/3/6
f 3/3/6 10/11/5 11/12/7 4/4/8
f 4/5/8 11/13/7 12/14/9 5/6/10
f 5/6/10 12/14/9 13/15/11 6/7/12
f 6/7/12 13/15/11 14/16/13 7/8/14
f 7/8/14 14/16/13 8/9/2 1/1/1
f 8/9/2 15/17/15 16/18/16 9/10/3
f 9/10/3 16/18/16 17/19/17 10/11/5
f 10/11/5 17/19/17 18/20/18 11/12/7
f 11/13/7 18/21/18 19/22/19 12/14/9
f 12/14/9 19/22/19 20/23/20 13/15/11
f 13/15/11 20/23/20 21/24/21 14/16/13
f 14/16/13 21/24/21 15/17/15 8/9/2
f 15/17/15 22/25/22 23/27/23 16/18/16
f 16/18/16 23/27/23 24/29/24 17/19/17
f 17/19/17 24/29/24 25/31/25 18/20/18
f 18/21/18 25/32/25 26/35/26 19/22/19
f 19/22/19 26/35/26 27/37/27 20/23/20
f 20/23/20 27/37/27 28/39/28 21/24/21
f 21/24/21 28/39/28 22/25/22 15/17/15
f 22/26/22 29/41/29 30/42/30 23/28/23
f 23/28/23 30/42/30 31/43/31 24/30/24
f 24/30/24 31/43/31 32/44/32 25/33/25
f 25/34/25 32/45/32 33/46/33 26/36/26
f 26/36/26 33/46/33 34/47/34 27/38/27
f 27/38/27 34/47/34 35/48/35 28/40/28
f 28/40/28 35/48/35 29/41/29 22/26/22
f 29/41/29 36/49/36 37/50/37 30/42/30
f 30/42/30 37/50/37 38/51/38 31/43/31
f 31/43/31 38/51/38 39/52/39 32/44/32
f 32/45/32 39/53/39 40/54/40 33/46/33
f 33/46/33 40/54/40 41/55/41 34/47/34
f 34/47/34 41/55/41 42/56/42 35/48/35
f 35/48/35 42/56/42 36/49/36 29/41/29
f 36/49/36 1/1/1 2/2/4 37/50/37
f 37/50/37 2/2/4 3/3/6 38/51/38
f 38/51/38 3/3/6 4/4/8 39/52/39
f 39/53/39 4/5/8 5/6/10 40/54/40
f 40/54/40 5/6/10 6/7/12 41/55/41
f 41/55/41 6/7/12 7/8/14 42/56/42
f 42/56/42 7/8/14 1/1/1 36/49/36
f 43/57/43 44/60/44 46/64/45 45/62/46
f 45/62/46 46/64/45 48/67/47 47/65/48
f 47/65/48 48/67/47 50/70/49 49/68/50
f 49/68/50 50/70/49 52/73/51 51/71/52
f 51/71/52 52/73/51 54/76/53 53/74/54
f 53/74/54 54/76/53 44/61/44 43/58/43
f 43/59/43 45/63/46 47/66/48 49/69/50 51/72/52 53/75/54
usemtl Material.001
f 57/81/55 58/83/56 62/88/57 61/87/58
f 61/87/58 62/88/57 60/86/59 59/85/60
f 59/85/60 60/86/59 56/79/61 55/77/62
f 57/82/55 61/87/58 59/85/60 55/78/62
f 62/88/57 58/84/56 56/80/61 60/86/59
f 65/93/55 66/95/56 70/100/57 69/99/58
f 69/99/58 70/100/57 68/98/59 67/97/60
f 67/97/60 68/98/59 64/91/61 63/89/62
f 65/94/55 69/99/58 67/97/60 63/90/62
f 70/100/57 66/96/56 64/92/61 68/98/59
f 48/67/47 46/64/45 72/103/46 73/104/48
f 54/76/53 52/73/51 75/106/52 76/107/54
f 46/64/45 44/60/44 71/102/43 72/103/46
f 50/70/49 48/67/47 73/104/48 74/105/50
f 44/61/44 54/76/53 76/107/54 71/101/43
f 52/73/51 50/70/49 74/105/50 75/106/52
f 71/101/43 76/107/54 82/114/63 77/109/64
f 75/106/52 74/105/50 80/112/65 81/113/66
f 73/104/48 72/103/46 78/110/67 79/111/68
f 76/107/54 75/106/52 81/113/66 82/114/63
f 74/105/50 73/104/48 79/111/68 80/112/65
f 72/103/46 71/102/43 77/108/64 78/110/67
f 82/114/63 81/113/66 87/120/69 88/121/70
f 80/112/65 79/111/68 85/118/71 86/119/72
f 78/110/67 77/108/64 83/116/73 84/117/74
f 77/109/64 82/114/63 88/121/70 83/115/73
f 81/113/66 80/112/65 86/119/72 87/120/69
f 79/111/68 78/110/67 84/117/74 85/118/71
usemtl Material
f 83/115/73 88/121/70 94/128/53 89/123/44
f 87/120/69 86/119/72 92/126/49 93/127/51
f 85/118/71 84/117/74 90/124/45 91/125/47
f 88/121/70 87/120/69 93/127/51 94/128/53
f 86/119/72 85/118/71 91/125/47 92/126/49
f 84/117/74 83/116/73 89/122/44 90/124/45
usemtl Material.001
f 94/128/53 93/127/51 99/134/52 100/135/54
f 92/126/49 91/125/47 97/132/48 98/133/50
f 90/124/45 89/122/44 95/130/43 96/131/46
f 89/123/44 94/128/53 100/135/54 95/129/43
f 93/127/51 92/126/49 98/133/50 99/134/52
f 91/125/47 90/124/45 96/131/46 97/132/48
f 95/129/43 100/135/54 106/142/75 101/137/76
f 99/134/52 98/133/50 104/140/77 105/141/78
f 97/132/48 96/131/46 102/138/79 103/139/80
f 100/135/54 99/134/52 105/141/78 106/142/75
f 98/133/50 97/132/48 103/139/80 104/140/77
f 96/131/46 95/130/43 101/136/76 102/138/79
f 106/142/75 105/141/78 111/148/81 112/149/82
f 104/140/77 103/139/80 109/146/83 110/147/84
f 102/138/79 101/136/76 107/143/85 108/145/86
f 101/137/76 106/142/75 112/149/82 107/144/85
f 105/141/78 104/140/77 110/147/84 111/148/81
f 103/139/80 102/138/79 108/145/86 109/146/83
usemtl Material
f 111/148/81 110/147/84 116/154/87 117/155/88
f 109/146/83 108/145/86 114/152/89 115/153/90
f 112/149/82 111/148/81 117/155/88 118/156/91
f 110/147/84 109/146/83 115/153/90 116/154/87
f 108/145/86 107/143/85 113/150/92 114/152/89
f 107/144/85 112/149/82 118/156/91 113/151/92
